<?xml version="1.0" encoding="utf-8" ?>
<svg baseProfile="tiny" height="100%" version="1.2" width="100%" xmlns="http://www.w3.org/2000/svg" xmlns:ev="http://www.w3.org/2001/xml-events" xmlns:xlink="http://www.w3.org/1999/xlink"><defs /><circle cx="190mm" cy="140mm" fill="white" r="1.5mm" stroke="black" stroke-width="0.1mm" /><line stroke="black" stroke-width="0.1mm" x1="185mm" x2="195mm" y1="135mm" y2="145mm" /><line stroke="black" stroke-width="0.1mm" x1="195mm" x2="185mm" y1="135mm" y2="145mm" /><circle cx="190mm" cy="10mm" fill="white" r="1.5mm" stroke="black" stroke-width="0.1mm" /><line stroke="black" stroke-width="0.1mm" x1="185mm" x2="195mm" y1="5mm" y2="15mm" /><line stroke="black" stroke-width="0.1mm" x1="195mm" x2="185mm" y1="5mm" y2="15mm" /><circle cx="170.5mm" cy="100mm" fill="white" r="1.5mm" stroke="black" stroke-width="0.1mm" /><line stroke="black" stroke-width="0.1mm" x1="165.5mm" x2="175.5mm" y1="95mm" y2="105mm" /><line stroke="black" stroke-width="0.1mm" x1="175.5mm" x2="165.5mm" y1="95mm" y2="105mm" /><circle cx="145mm" cy="45.5mm" fill="white" r="1.5mm" stroke="black" stroke-width="0.1mm" /><line stroke="black" stroke-width="0.1mm" x1="140mm" x2="150mm" y1="40.5mm" y2="50.5mm" /><line stroke="black" stroke-width="0.1mm" x1="150mm" x2="140mm" y1="40.5mm" y2="50.5mm" /><circle cx="112.8mm" cy="87mm" fill="white" r="1.5mm" stroke="black" stroke-width="0.1mm" /><line stroke="black" stroke-width="0.1mm" x1="107.8mm" x2="117.8mm" y1="82mm" y2="92mm" /><line stroke="black" stroke-width="0.1mm" x1="117.8mm" x2="107.8mm" y1="82mm" y2="92mm" /><circle cx="112.95mm" cy="20.8mm" fill="white" r="1.5mm" stroke="black" stroke-width="0.1mm" /><line stroke="black" stroke-width="0.1mm" x1="107.95mm" x2="117.95mm" y1="15.8mm" y2="25.8mm" /><line stroke="black" stroke-width="0.1mm" x1="117.95mm" x2="107.95mm" y1="15.8mm" y2="25.8mm" /><circle cx="56.15mm" cy="87.65mm" fill="white" r="1.5mm" stroke="black" stroke-width="0.1mm" /><line stroke="black" stroke-width="0.1mm" x1="51.15mm" x2="61.15mm" y1="82.65mm" y2="92.65mm" /><line stroke="black" stroke-width="0.1mm" x1="61.15mm" x2="51.15mm" y1="82.65mm" y2="92.65mm" /><circle cx="47.35mm" cy="9.45mm" fill="white" r="1.5mm" stroke="black" stroke-width="0.1mm" /><line stroke="black" stroke-width="0.1mm" x1="42.35mm" x2="52.35mm" y1="4.45mm" y2="14.45mm" /><line stroke="black" stroke-width="0.1mm" x1="52.35mm" x2="42.35mm" y1="4.45mm" y2="14.45mm" /><circle cx="10mm" cy="10mm" fill="white" r="1.5mm" stroke="black" stroke-width="0.1mm" /><line stroke="black" stroke-width="0.1mm" x1="5mm" x2="15mm" y1="5mm" y2="15mm" /><line stroke="black" stroke-width="0.1mm" x1="15mm" x2="5mm" y1="5mm" y2="15mm" /><circle cx="20mm" cy="130mm" fill="white" r="1.5mm" stroke="black" stroke-width="0.1mm" /><line stroke="black" stroke-width="0.1mm" x1="15mm" x2="25mm" y1="125mm" y2="135mm" /><line stroke="black" stroke-width="0.1mm" x1="25mm" x2="15mm" y1="125mm" y2="135mm" /><line stroke="black" stroke-width="0.1mm" x1="0mm" x2="200mm" y1="0mm" y2="0mm" /><line stroke="black" stroke-width="0.1mm" x1="200mm" x2="200mm" y1="0mm" y2="150mm" /><line stroke="black" stroke-width="0.1mm" x1="200mm" x2="0mm" y1="150mm" y2="150mm" /><line stroke="black" stroke-width="0.1mm" x1="0mm" x2="0mm" y1="150mm" y2="0mm" /></svg>